<svg width="157" height="175" viewBox="0 0 157 175" fill="none" xmlns="http://www.w3.org/2000/svg">
<path d="M2 54.0488V120.983C2 127.586 5.55551 133.737 11.2556 137.067L69.2162 170.534C74.9727 173.864 82.0273 173.864 87.7838 170.534L145.744 137.067C151.501 133.737 155 127.642 155 120.983V54.0488C155 47.4457 151.444 41.2941 145.744 37.9643L87.7838 4.49733C82.0273 1.16756 74.9727 1.16756 69.2162 4.49733L11.2556 37.9643C5.49907 41.2941 2 47.3892 2 54.0488Z" stroke="#61BB73" stroke-width="3" stroke-miterlimit="10"/>
<mask id="mask0_1370_183" style="mask-type:alpha" maskUnits="userSpaceOnUse" x="26" y="43" width="113" height="90">
<path d="M26 77.7189C26 77.1286 26 76.5037 26 75.9135H38.3252C41.1721 84.5237 43.6371 93.1687 46.4841 101.779H93.4238C97.8678 87.2318 101.965 72.4763 106.409 57.7903H138.836C139.148 61.0538 138.905 64.3174 138.975 67.7546H115.922C111.061 83.4127 106.235 98.9667 101.409 114.486C100.749 115.007 99.9857 114.937 99.2566 114.937C79.7099 114.937 60.1285 114.937 40.5819 114.937C39.9222 114.937 39.2278 115.007 38.4987 114.451C37.5613 111.604 36.5892 108.584 35.5824 105.598C34.3325 101.848 33.1173 98.0988 31.8675 94.3491C30.5829 90.4954 29.333 86.6416 28.0484 82.7878C27.5276 81.2254 27.0416 79.6631 26.5555 78.1355C26.4861 77.8924 26.3125 77.7536 26.0347 77.7536L26 77.7189Z" fill="#2C3341"/>
<path d="M98.8054 125.353C98.8054 129.485 95.4724 132.818 91.3408 132.713C86.8274 132.609 83.911 129.346 83.9805 125.214C84.0499 120.944 87.1746 117.958 91.3756 117.958C95.7501 117.958 98.8054 121.222 98.8054 125.353Z" fill="#2E3643"/>
<path d="M49.5736 117.958C53.7746 118.097 56.8298 121.083 56.934 125.249C57.0382 129.38 53.7746 132.679 49.6083 132.748C45.4768 132.818 42.1438 129.485 42.1438 125.388C42.1438 121.222 45.4074 117.993 49.5736 117.958Z" fill="#2E3643"/>
<path d="M40.7903 66.1919C41.2763 66.0531 41.6235 66.1919 41.6583 66.7474C41.2069 66.8169 40.9639 66.5391 40.7903 66.1919Z" fill="#E69A4F"/>
<path d="M85.543 43L99.4652 50.3257L85.4735 56.575L71.5166 50.3604L85.543 43Z" fill="#69BDD4"/>
<path d="M71.5166 50.3608V66.1232L85.5083 72.5461V56.5755L71.5166 50.3608Z" fill="#4BA0C3"/>
<path d="M99.4653 50.3259V66.123L85.4736 72.5459V56.5753L99.4653 50.3259Z" fill="#438BB4"/>
<path d="M53.914 43L67.8362 50.3257L53.8446 56.575L39.9224 50.3604L53.914 43Z" fill="#E69A4F"/>
<path d="M39.9224 50.3608V66.1232L53.8793 72.5461V56.5755L39.9224 50.3608Z" fill="#DE813E"/>
<path d="M67.8361 50.3259V66.123L53.8792 72.5459V56.5753L67.8361 50.3259Z" fill="#D36938"/>
<path d="M69.7459 68.5186L83.6681 75.8789L69.6764 82.1283L55.7195 75.8789L69.7459 68.5186Z" fill="#447EB6"/>
<path d="M55.7195 75.8794V91.6764L69.7112 98.0994V82.1288L55.7195 75.8794Z" fill="#3566A8"/>
<path d="M83.6682 75.8794V91.6764L69.6765 98.0647V82.0941L83.6682 75.8794Z" fill="#265198"/>
</mask>
<g mask="url(#mask0_1370_183)">
<rect x="7" y="17" width="140" height="140" fill="#130C49"/>
</g>
</svg>
