<svg width="157" height="175" viewBox="0 0 157 175" fill="none" xmlns="http://www.w3.org/2000/svg">
<path d="M29 77.7189C29 77.1286 29 76.5037 29 75.9135H41.3252C44.1721 84.5237 46.6371 93.1687 49.4841 101.779H96.4238C100.868 87.2318 104.965 72.4763 109.409 57.7903H141.836C142.148 61.0538 141.905 64.3174 141.975 67.7546H118.922C114.061 83.4127 109.235 98.9667 104.409 114.486C103.749 115.007 102.986 114.937 102.257 114.937C82.7099 114.937 63.1285 114.937 43.5819 114.937C42.9222 114.937 42.2278 115.007 41.4987 114.451C40.5613 111.604 39.5892 108.584 38.5824 105.598C37.3325 101.848 36.1173 98.0988 34.8675 94.3491C33.5829 90.4954 32.333 86.6416 31.0484 82.7878C30.5276 81.2254 30.0416 79.6631 29.5555 78.1355C29.4861 77.8924 29.3125 77.7536 29.0347 77.7536L29 77.7189Z" fill="#130C49"/>
<path d="M94.3757 119.694C97.7647 119.694 100.069 122.154 100.069 125.354C100.069 128.435 97.6721 130.898 94.6765 130.978L94.3845 130.979L94.3806 130.978L94.0525 130.964C90.8068 130.749 88.7968 128.485 88.7175 125.54L88.7166 125.243V125.242C88.7704 121.937 91.1055 119.694 94.3757 119.694Z" fill="#130C49" stroke="#130C49" stroke-width="3.47188"/>
<path d="M52.553 119.695C55.746 119.817 57.9755 121.951 58.1848 124.994L58.1985 125.292V125.584C58.1231 128.579 55.7171 130.96 52.5793 131.013C49.4295 131.066 46.8801 128.526 46.8801 125.388C46.8802 122.205 49.3381 119.74 52.553 119.695Z" fill="#130C49" stroke="#130C49" stroke-width="3.47188"/>
<path d="M43.7903 66.1919C44.2763 66.0531 44.6235 66.1919 44.6583 66.7474C44.2069 66.8169 43.9639 66.5391 43.7903 66.1919Z" fill="#E69A4F"/>
<path d="M101.321 50.2891L88.4727 56.0273L75.6621 50.3232L88.542 43.5645L101.321 50.2891Z" stroke="#130C49"/>
<path d="M88.0078 56.8999V71.7651L75.0166 65.8013V51.1294L88.0078 56.8999Z" stroke="#130C49"/>
<path d="M101.965 65.8025L88.9736 71.7654V56.8992L101.965 51.0964V65.8025Z" stroke="#130C49"/>
<path d="M69.3213 50.2891L56.4727 56.0273L43.6621 50.3232L56.542 43.5645L69.3213 50.2891Z" stroke="#130C49"/>
<path d="M56.0078 56.8999V71.7651L43.0166 65.8013V51.1294L56.0078 56.8999Z" stroke="#130C49"/>
<path d="M69.9648 65.8025L56.9736 71.7654V56.8992L69.9648 51.0964V65.8025Z" stroke="#130C49"/>
<path d="M85.3213 76.2891L72.4727 82.0273L59.6621 76.3232L72.542 69.5645L85.3213 76.2891Z" stroke="#130C49"/>
<path d="M72.0078 82.8999V97.7651L59.0166 91.8013V77.1294L72.0078 82.8999Z" stroke="#130C49"/>
<path d="M85.9648 91.8025L72.9736 97.7654V82.8992L85.9648 77.0964V91.8025Z" stroke="#130C49"/>
<path d="M2 54.0488V120.983C2 127.586 5.55551 133.737 11.2556 137.067L69.2162 170.534C74.9727 173.864 82.0273 173.864 87.7838 170.534L145.744 137.067C151.501 133.737 155 127.642 155 120.983V54.0488C155 47.4457 151.444 41.2941 145.744 37.9643L87.7838 4.49733C82.0273 1.16756 74.9727 1.16756 69.2162 4.49733L11.2556 37.9643C5.49907 41.2941 2 47.3892 2 54.0488Z" stroke="#61BB73" stroke-width="3" stroke-miterlimit="10"/>
</svg>
