<svg width="157" height="175" viewBox="0 0 157 175" fill="none" xmlns="http://www.w3.org/2000/svg">
<path d="M2 54.0488V120.983C2 127.586 5.55551 133.737 11.2556 137.067L69.2162 170.534C74.9727 173.864 82.0273 173.864 87.7838 170.534L145.744 137.067C151.501 133.737 155 127.642 155 120.983V54.0488C155 47.4457 151.444 41.2941 145.744 37.9643L87.7838 4.49733C82.0273 1.16756 74.9727 1.16756 69.2162 4.49733L11.2556 37.9643C5.49907 41.2941 2 47.3892 2 54.0488Z" stroke="#61BB73" stroke-width="3" stroke-miterlimit="10"/>
<g transform="translate(43.5 52.5) scale(2.917)" fill="#130C49">
<path d="M12.04 0C5.408-.02.005 5.37.005 11.992h4.638c0-4.923 4.882-8.731 10.064-6.855a6.95 6.95 0 014.147 4.148c1.889 5.177-1.924 10.055-6.84 10.064v-4.61H7.391v4.623h4.61V24c7.86 0 13.967-7.588 11.397-15.83-1.115-3.59-3.985-6.446-7.575-7.575A12.8 12.8 0 0012.039 0zM7.39 19.362H3.828v3.564H7.39zm-3.563 0v-2.978H.85v2.978z"/>
</g>
</svg>
