<svg width="157" height="175" viewBox="0 0 157 175" fill="none" xmlns="http://www.w3.org/2000/svg">
<path d="M2 54.0488V120.983C2 127.586 5.55551 133.737 11.2556 137.067L69.2162 170.534C74.9727 173.864 82.0273 173.864 87.7838 170.534L145.744 137.067C151.501 133.737 155 127.642 155 120.983V54.0488C155 47.4457 151.444 41.2941 145.744 37.9643L87.7838 4.49733C82.0273 1.16756 74.9727 1.16756 69.2162 4.49733L11.2556 37.9643C5.49907 41.2941 2 47.3892 2 54.0488Z" stroke="#61BB73" stroke-width="3" stroke-miterlimit="10"/>
<mask id="mask0_1370_184" style="mask-type:alpha" maskUnits="userSpaceOnUse" x="31" y="43" width="84" height="90">
<path fill-rule="evenodd" clip-rule="evenodd" d="M78.2973 43V63.5398H57.7576L78.2973 43Z" fill="#3367D6" fill-opacity="0.6"/>
<path fill-rule="evenodd" clip-rule="evenodd" d="M78.2973 63.54V84.0798L57.7576 63.54H78.2973Z" fill="#3367D6" fill-opacity="0.8"/>
<path d="M57.0202 104.545V104.172L60.7547 97.4495H91.3776C94.3652 97.4495 97.3528 95.5822 98.4732 93.3415L114.158 64.5858L107.436 60.4779L102.955 68.6938L91.7511 89.2335H62.622L62.2485 88.1132L52.9122 68.6938L49.1777 60.4779L45.4432 52.262H31.999V60.4779H40.2149L55.1529 91.4742L49.5512 101.557C48.8043 102.678 48.4308 104.172 48.4308 105.665C48.4308 110.147 52.1653 113.881 56.6467 113.881H105.942V105.665H58.1405C57.7671 105.665 57.0202 105.292 57.0202 104.545Z" fill="#3367D6" fill-opacity="0.6"/>
<path fill-rule="evenodd" clip-rule="evenodd" d="M61.8696 117.315C57.7616 117.315 54.0271 120.676 54.0271 125.157C54.0271 129.265 57.3882 133 61.8696 133C66.351 133 69.712 129.639 69.712 125.157C69.712 120.676 65.9775 117.315 61.8696 117.315Z" fill="#3367D6"/>
<path fill-rule="evenodd" clip-rule="evenodd" d="M95.4799 117.315C91.372 117.315 87.6375 120.676 87.6375 125.157C87.6375 129.265 90.9985 133 95.4799 133C99.5879 133 103.322 129.639 103.322 125.157C103.322 120.676 99.5879 117.315 95.4799 117.315Z" fill="#3367D6"/>
<path fill-rule="evenodd" clip-rule="evenodd" d="M78.2993 43L98.8391 63.5398H78.2993V43Z" fill="#3367D6" fill-opacity="0.8"/>
<path fill-rule="evenodd" clip-rule="evenodd" d="M98.8391 63.54L78.2993 84.0798V63.54H98.8391Z" fill="#3367D6"/>
</mask>
<g mask="url(#mask0_1370_184)">
<rect x="7" y="4" width="144" height="162" fill="#130C49"/>
</g>
</svg>
